#!OML:ASF F:\VICON\USERDATA\INSTALL\rory3\rory3.ASF
:FULLY-SPECIFIED
:DEGREES
27
root -0.41942316021124226 18.123714258522092 -12.393216231456945 5.162519862106292 2.378552794014774 -3.2686578625060725
lfemur -28.623968661646565 -1.2345791609922383 -21.16187180923937
ltibia 32.74708413943451
lfoot 6.675614118238651 -8.592995107079979
ltoes -26.710443747581298
rfemur 6.651236112462371 6.882653250634009 32.33210931489419
rtibia 56.40596226459627
rfoot 20.368608920802274 -10.285644180583562
rtoes 13.406015179063612
lowerback 14.415303003670855 2.6947871815251463 3.267772348044531
upperback -1.5712590532514774 4.138935176785696 0.1727084335893767
thorax -8.490377567556822 1.8047458564985894 -3.116122904466504
lowerneck -19.721582210907425 -4.9340894418827785 -1.7692155473163413
upperneck 12.741120142719756 -6.872825765326522 3.2095710175495467
head 7.27231587857758 -3.0909569030595736 0.7043487523914577
lclavicle 7.933867050169468e-17 -3.510693723798766e-16
lhumerus -64.70177835100232 -5.08585213559909 95.25988500020398
lradius 101.83114682598209
lwrist 33.61405172428899
lhand -24.5133390337526 -0.21513874843466296
lfingers 7.12502
lthumb 2.3123808928618628 30.282264511853136
rclavicle 7.933867064754566e-17 -3.5106937227226544e-16
rhumerus -43.96739510723924 14.788010519382393 -97.68592181418211
rradius 116.44196529935735
rwrist -10.174343808443624
rhand -16.19014309157804 38.567966684958186
rfingers 7.12502
rthumb 9.245830958822697 9.871729758096484
28
root -0.417293199546486 18.04728596374406 -11.782765742706987 5.028182466759458 2.7719299999363534 -2.656884352593789
lfemur -27.382268663654216 -1.1841817574200333 -22.051933631078505
ltibia 32.49865234802684
lfoot 6.8551812918574635 -7.191156472032996
ltoes -27.735543049919574
rfemur 4.9687306629623365 5.894992396222874 31.271680451358435
rtibia 59.828616147381496
rfoot 20.25503038194407 -11.504805597719097
rtoes 12.307273014959755
lowerback 14.67012128611697 2.5112849502838372 2.711261011375758
upperback -1.4216780283368142 3.7766218476795688 -0.1196267080002722
thorax -8.38944623028544 1.659372224673262 -2.7216250947365745
lowerneck -19.650326631955412 -4.807873473909987 -1.8174982006278864
upperneck 12.480007133383513 -6.747706773870426 3.337238005331458
head 7.11249486054399 -3.0369045154362455 0.7714881274721679
lclavicle 7.933867051931834e-17 -3.510693723655196e-16
lhumerus -63.335992122977935 -6.008269377953235 95.53518368072291
lradius 101.46082026887738
lwrist 33.30082225694777
lhand -24.57667868434982 -0.18267372116123304
lfingers 7.12502
lthumb 2.2441143415733062 30.28744789463236
rclavicle 7.933867064361951e-17 -3.510693722746459e-16
rhumerus -44.38615524963105 14.347573958153513 -97.93752407118515
rradius 115.87712080270981
rwrist -9.930510768772258
rhand -16.258624831948453 38.20010439891164
rfingers 7.12502
rthumb 9.159904631385238 9.1295195378837
29
root -0.42494756176320503 17.97149407728481 -11.195214225337386 4.886032889307759 3.1505683208069026 -2.134395357464804
lfemur -26.223767504013335 -1.157488058068979 -22.837777997756614
ltibia 32.624976459073906
lfoot 6.673471566536001 -6.307678272902896
ltoes -29.27002274449812
rfemur 3.0948722395218766 4.832128421049495 30.202043027710854
rtibia 63.20289738930812
rfoot 20.03624743695633 -12.670451111518743
rtoes 12.186216848216304
lowerback 14.9745683997436 2.334280363223283 2.179353240793141
upperback -1.3075490693893381 3.412495405469768 -0.3532837798143811
thorax -8.412824045591979 1.5037830647559942 -2.3260313419050185
lowerneck -19.724952296938202 -4.736951240059973 -1.8341381751347234
upperneck 12.276604831045908 -6.659908565800816 3.438866209429955
head 7.020648683505617 -2.9915558282269092 0.8286932793120098
lclavicle 7.933867048552476e-17 -3.5106937238987804e-16
lhumerus -61.83150065027078 -7.189513179006859 95.78821416425934
lradius 101.09998545313371
lwrist 32.94907806094737
lhand -24.662234073566616 0.055193236768940945
lfingers 7.12502
lthumb 2.200071047289896 30.41597370523313
rclavicle 7.933867063078036e-17 -3.5106937228250594e-16
rhumerus -44.887536869276005 13.821209904524782 -98.14764917869402
rradius 115.31670423073301
rwrist -9.738900096205157
rhand -16.307094702291867 38.14086304489292
rfingers 7.12502
rthumb 9.049380928486421 8.680503927065
30
root -0.43659765456284605 17.87143376851417 -10.413690046947716 4.679205831985774 3.4360262040209006 -1.6535444175633343
lfemur -25.137930736568237 -1.112537387749668 -23.554711980152153
ltibia 33.22935734825967
lfoot 5.958327981461835 -6.495657104449446
ltoes -30.515794304705967
rfemur 0.9441289323510631 3.737418133080406 29.100144842355576
rtibia 66.62351956908634
rfoot 19.650147721793928 -13.680084664202539
rtoes 13.090835172834481
lowerback 15.27749867818841 2.174896383783982 1.5716108752835
upperback -1.165647582751527 3.123510114034451 -0.5398575606700151
thorax -8.497418291275393 1.4064534946097789 -1.9045178238347822
lowerneck -19.788679523300203 -4.681764825653645 -1.7983848034159005
upperneck 12.090058368800136 -6.576134393616822 3.510820734555445
head 6.9864695314641105 -2.936298753674693 0.8405285519838854
lclavicle 7.93386704991477e-17 -3.5106937237973886e-16
lhumerus -60.08286158469426 -8.412766323633349 96.07629136089844
lradius 100.73380093617813
lwrist 32.60455796463674
lhand -24.69862288586154 0.233959930493721
lfingers 7.12502
lthumb 2.1579166444636346 30.547896079906863
rclavicle 7.933867063114235e-17 -3.5106937228273185e-16
rhumerus -45.44750760764355 13.421071066327984 -98.54712069417761
rradius 114.79925363128864
rwrist -9.663603813145025
rhand -16.28026640322567 38.239478020113346
rfingers 7.12502
rthumb 9.016262380914359 8.571092016615209
31
root -0.4411207121916504 17.799325057278264 -9.525763528196917 4.519643489178448 3.737462650450172 -1.203678984426906
lfemur -24.106543908846326 -1.1875839460410047 -24.179289131306234
ltibia 34.25321065549272
lfoot 5.796083507553153 -7.496031187760133
ltoes -29.06968667614058
rfemur -1.447468345405266 2.5924862655275804 27.93201628217027
rtibia 69.92809260530174
rfoot 19.048464930852006 -14.44994686241936
rtoes 15.491526142327725
lowerback 15.493737401462964 1.9909134223970524 0.9950269923727849
upperback -0.9832459145363064 2.7221376509658217 -0.7227466586754809
thorax -8.517038238923424 1.2182478785873638 -1.558497860690409
lowerneck -20.012703502309115 -4.645417312840825 -1.8091440086822104
upperneck 11.984355298179615 -6.512507535908531 3.5978404653106004
head 6.968902346522841 -2.891617634307363 0.8882717313768723
lclavicle 7.93386704881003e-17 -3.5106937238903174e-16
lhumerus -58.09467508828947 -9.653022427234923 96.38281152895632
lradius 100.37447384105396
lwrist 32.307920258708926
lhand -24.83396035618038 0.280701028697939
lfingers 7.12502
lthumb 2.150884633109359 30.80470842353687
rclavicle 7.933867067551612e-17 -3.5106937224916636e-16
rhumerus -45.929519859449094 13.045820949210803 -98.84435361683684
rradius 114.26461086183114
rwrist -9.717145456347911
rhand -16.34034556096244 38.17324107590827
rfingers 7.12502
rthumb 9.026463284272724 8.55012798499784
